<mxfile host="app.diagrams.net" modified="2022-11-22T08:24:03.374Z" agent="5.0 (Windows)" etag="2jPMwiHcTLA1xT1fMZ0C" version="20.5.3" type="github">
  <diagram name="Page-1" id="b520641d-4fe3-3701-9064-5fc419738815">
    <mxGraphModel dx="1221" dy="664" grid="1" gridSize="10" guides="1" tooltips="1" connect="1" arrows="1" fold="1" page="1" pageScale="1" pageWidth="1100" pageHeight="850" background="none" math="0" shadow="0">
      <root>
        <mxCell id="0" />
        <mxCell id="1" parent="0" />
        <mxCell id="i_WOiG4FeXk5FNqNEXf6-3" value="" style="curved=1;endArrow=classic;html=1;rounded=0;fontSize=14;exitX=1.017;exitY=0.4;exitDx=0;exitDy=0;entryX=0;entryY=0.5;entryDx=0;entryDy=0;exitPerimeter=0;" parent="1" target="i_WOiG4FeXk5FNqNEXf6-4" edge="1">
          <mxGeometry width="50" height="50" relative="1" as="geometry">
            <mxPoint x="142.03999999999996" y="324" as="sourcePoint" />
            <mxPoint x="300" y="340" as="targetPoint" />
            <Array as="points">
              <mxPoint x="220" y="270" />
            </Array>
          </mxGeometry>
        </mxCell>
        <mxCell id="i_WOiG4FeXk5FNqNEXf6-4" value="&lt;div&gt;Login&lt;/div&gt;&lt;div&gt;0.1&lt;br&gt;&lt;/div&gt;" style="ellipse;whiteSpace=wrap;html=1;aspect=fixed;fillColor=none;fontSize=14;" parent="1" vertex="1">
          <mxGeometry x="280" y="250" width="80" height="80" as="geometry" />
        </mxCell>
        <mxCell id="i_WOiG4FeXk5FNqNEXf6-5" value="" style="curved=1;endArrow=classic;html=1;rounded=0;fontSize=14;exitX=-0.012;exitY=0.625;exitDx=0;exitDy=0;exitPerimeter=0;" parent="1" source="i_WOiG4FeXk5FNqNEXf6-4" edge="1">
          <mxGeometry width="50" height="50" relative="1" as="geometry">
            <mxPoint x="299.99999999999994" y="365" as="sourcePoint" />
            <mxPoint x="140" y="340" as="targetPoint" />
            <Array as="points">
              <mxPoint x="230" y="370" />
            </Array>
          </mxGeometry>
        </mxCell>
        <mxCell id="i_WOiG4FeXk5FNqNEXf6-6" value="Login Database" style="html=1;rounded=0;shadow=0;comic=0;labelBackgroundColor=none;strokeWidth=2;fontFamily=Verdana;fontSize=14;align=center;shape=mxgraph.ios7ui.horLines;fillColor=none;" parent="1" vertex="1">
          <mxGeometry x="210" y="360" width="135" height="50" as="geometry" />
        </mxCell>
        <mxCell id="i_WOiG4FeXk5FNqNEXf6-8" value="" style="curved=1;endArrow=classic;html=1;rounded=0;fontSize=14;entryX=0.426;entryY=-0.02;entryDx=0;entryDy=0;entryPerimeter=0;exitX=0.5;exitY=1;exitDx=0;exitDy=0;" parent="1" source="i_WOiG4FeXk5FNqNEXf6-4" target="i_WOiG4FeXk5FNqNEXf6-6" edge="1">
          <mxGeometry width="50" height="50" relative="1" as="geometry">
            <mxPoint x="370" y="370" as="sourcePoint" />
            <mxPoint x="624.6446609406726" y="390" as="targetPoint" />
            <Array as="points">
              <mxPoint x="310" y="350" />
            </Array>
          </mxGeometry>
        </mxCell>
        <mxCell id="i_WOiG4FeXk5FNqNEXf6-9" value="" style="curved=1;endArrow=classic;html=1;rounded=0;fontSize=14;" parent="1" target="i_WOiG4FeXk5FNqNEXf6-18" edge="1">
          <mxGeometry width="50" height="50" relative="1" as="geometry">
            <mxPoint x="210" y="180" as="sourcePoint" />
            <mxPoint x="330" y="130" as="targetPoint" />
            <Array as="points">
              <mxPoint x="320" y="170" />
            </Array>
          </mxGeometry>
        </mxCell>
        <mxCell id="i_WOiG4FeXk5FNqNEXf6-10" value="Login" style="text;html=1;strokeColor=none;fillColor=none;align=center;verticalAlign=middle;whiteSpace=wrap;rounded=0;fontSize=14;rotation=-20;" parent="1" vertex="1">
          <mxGeometry x="160" y="290" width="60" height="30" as="geometry" />
        </mxCell>
        <mxCell id="i_WOiG4FeXk5FNqNEXf6-12" value="Login Confirmation" style="text;html=1;strokeColor=none;fillColor=none;align=center;verticalAlign=middle;whiteSpace=wrap;rounded=0;fontSize=14;rotation=-10;" parent="1" vertex="1">
          <mxGeometry x="185" y="317.5" width="80" height="30" as="geometry" />
        </mxCell>
        <mxCell id="i_WOiG4FeXk5FNqNEXf6-14" value="" style="curved=1;endArrow=classic;html=1;rounded=0;fontSize=14;entryX=0;entryY=0;entryDx=0;entryDy=0;" parent="1" target="i_WOiG4FeXk5FNqNEXf6-4" edge="1">
          <mxGeometry width="50" height="50" relative="1" as="geometry">
            <mxPoint x="120" y="210" as="sourcePoint" />
            <mxPoint x="309.03999999999996" y="240" as="targetPoint" />
            <Array as="points">
              <mxPoint x="250" y="220" />
            </Array>
          </mxGeometry>
        </mxCell>
        <mxCell id="i_WOiG4FeXk5FNqNEXf6-16" value="" style="curved=1;endArrow=classic;html=1;rounded=0;fontSize=14;exitX=0.019;exitY=0.3;exitDx=0;exitDy=0;exitPerimeter=0;" parent="1" source="i_WOiG4FeXk5FNqNEXf6-4" edge="1">
          <mxGeometry width="50" height="50" relative="1" as="geometry">
            <mxPoint x="360" y="310" as="sourcePoint" />
            <mxPoint x="100" y="240" as="targetPoint" />
            <Array as="points">
              <mxPoint x="200" y="280" />
            </Array>
          </mxGeometry>
        </mxCell>
        <mxCell id="i_WOiG4FeXk5FNqNEXf6-17" value="Appointment Slots" style="html=1;rounded=0;shadow=0;comic=0;labelBackgroundColor=none;strokeWidth=2;fontFamily=Verdana;fontSize=14;align=center;shape=mxgraph.ios7ui.horLines;fillColor=none;" parent="1" vertex="1">
          <mxGeometry x="362.5" y="360" width="135" height="50" as="geometry" />
        </mxCell>
        <mxCell id="i_WOiG4FeXk5FNqNEXf6-18" value="&lt;div&gt;Appointment&lt;/div&gt;&lt;div&gt;Availability&lt;br&gt;&lt;/div&gt;" style="ellipse;whiteSpace=wrap;html=1;aspect=fixed;fillColor=none;fontSize=14;" parent="1" vertex="1">
          <mxGeometry x="360" y="160" width="80" height="80" as="geometry" />
        </mxCell>
        <mxCell id="i_WOiG4FeXk5FNqNEXf6-19" value="Login" style="text;html=1;strokeColor=none;fillColor=none;align=center;verticalAlign=middle;whiteSpace=wrap;rounded=0;fontSize=14;rotation=15;" parent="1" vertex="1">
          <mxGeometry x="180" y="220" width="60" height="30" as="geometry" />
        </mxCell>
        <mxCell id="i_WOiG4FeXk5FNqNEXf6-20" value="Login Confirmation" style="text;html=1;strokeColor=none;fillColor=none;align=center;verticalAlign=middle;whiteSpace=wrap;rounded=0;fontSize=14;rotation=15;" parent="1" vertex="1">
          <mxGeometry x="142.5" y="240" width="80" height="30" as="geometry" />
        </mxCell>
        <mxCell id="i_WOiG4FeXk5FNqNEXf6-22" value="0.2" style="text;html=1;strokeColor=none;fillColor=none;align=center;verticalAlign=middle;whiteSpace=wrap;rounded=0;fontSize=14;" parent="1" vertex="1">
          <mxGeometry x="390" y="210" width="60" height="30" as="geometry" />
        </mxCell>
        <mxCell id="i_WOiG4FeXk5FNqNEXf6-23" value="" style="curved=1;endArrow=classic;html=1;rounded=0;fontSize=14;exitX=0.5;exitY=1;exitDx=0;exitDy=0;entryX=0.489;entryY=0;entryDx=0;entryDy=0;entryPerimeter=0;" parent="1" source="i_WOiG4FeXk5FNqNEXf6-18" target="i_WOiG4FeXk5FNqNEXf6-17" edge="1">
          <mxGeometry width="50" height="50" relative="1" as="geometry">
            <mxPoint x="560" y="270" as="sourcePoint" />
            <mxPoint x="748" y="341.03999999999996" as="targetPoint" />
            <Array as="points">
              <mxPoint x="460" y="330" />
            </Array>
          </mxGeometry>
        </mxCell>
        <mxCell id="i_WOiG4FeXk5FNqNEXf6-24" value="&lt;div&gt;Slot Booking Request&lt;br&gt;&lt;/div&gt;" style="ellipse;whiteSpace=wrap;html=1;aspect=fixed;fillColor=none;fontSize=14;" parent="1" vertex="1">
          <mxGeometry x="305" y="440" width="90" height="90" as="geometry" />
        </mxCell>
        <mxCell id="i_WOiG4FeXk5FNqNEXf6-25" value="0.3" style="text;html=1;strokeColor=none;fillColor=none;align=center;verticalAlign=middle;whiteSpace=wrap;rounded=0;fontSize=14;" parent="1" vertex="1">
          <mxGeometry x="320" y="500" width="60" height="30" as="geometry" />
        </mxCell>
        <mxCell id="i_WOiG4FeXk5FNqNEXf6-26" value="" style="curved=1;endArrow=classic;html=1;rounded=0;fontSize=14;entryX=0;entryY=0.5;entryDx=0;entryDy=0;" parent="1" target="i_WOiG4FeXk5FNqNEXf6-24" edge="1">
          <mxGeometry width="50" height="50" relative="1" as="geometry">
            <mxPoint x="190" y="420" as="sourcePoint" />
            <mxPoint x="250.00466094067258" y="440" as="targetPoint" />
            <Array as="points" />
          </mxGeometry>
        </mxCell>
        <mxCell id="i_WOiG4FeXk5FNqNEXf6-27" value="" style="curved=1;endArrow=classic;html=1;rounded=0;fontSize=14;entryX=0.533;entryY=1.06;entryDx=0;entryDy=0;entryPerimeter=0;" parent="1" source="i_WOiG4FeXk5FNqNEXf6-24" target="i_WOiG4FeXk5FNqNEXf6-17" edge="1">
          <mxGeometry width="50" height="50" relative="1" as="geometry">
            <mxPoint x="280" y="510" as="sourcePoint" />
            <mxPoint x="451.71572875253787" y="591.7157287525379" as="targetPoint" />
            <Array as="points">
              <mxPoint x="360" y="440" />
            </Array>
          </mxGeometry>
        </mxCell>
        <mxCell id="i_WOiG4FeXk5FNqNEXf6-30" value="Appointment Request" style="html=1;rounded=0;shadow=0;comic=0;labelBackgroundColor=none;strokeWidth=2;fontFamily=Verdana;fontSize=14;align=center;shape=mxgraph.ios7ui.horLines;fillColor=none;" parent="1" vertex="1">
          <mxGeometry x="620" y="320" width="160" height="50" as="geometry" />
        </mxCell>
        <mxCell id="i_WOiG4FeXk5FNqNEXf6-33" value="&lt;div&gt;Approve&lt;/div&gt;&lt;div&gt;/Reject&lt;br&gt;&lt;/div&gt;&lt;div&gt;Appointment&lt;/div&gt;" style="ellipse;whiteSpace=wrap;html=1;aspect=fixed;fillColor=none;fontSize=14;" parent="1" vertex="1">
          <mxGeometry x="537.5" y="160" width="90" height="90" as="geometry" />
        </mxCell>
        <mxCell id="i_WOiG4FeXk5FNqNEXf6-34" value="" style="curved=1;endArrow=classic;html=1;rounded=0;fontSize=14;entryX=0.5;entryY=0;entryDx=0;entryDy=0;" parent="1" target="i_WOiG4FeXk5FNqNEXf6-33" edge="1">
          <mxGeometry width="50" height="50" relative="1" as="geometry">
            <mxPoint x="200" y="110" as="sourcePoint" />
            <mxPoint x="680" y="120" as="targetPoint" />
            <Array as="points">
              <mxPoint x="420" y="120" />
            </Array>
          </mxGeometry>
        </mxCell>
        <mxCell id="i_WOiG4FeXk5FNqNEXf6-35" value="0.4" style="text;html=1;strokeColor=none;fillColor=none;align=center;verticalAlign=middle;whiteSpace=wrap;rounded=0;fontSize=14;" parent="1" vertex="1">
          <mxGeometry x="552.5" y="220" width="60" height="30" as="geometry" />
        </mxCell>
        <mxCell id="i_WOiG4FeXk5FNqNEXf6-36" value="" style="curved=1;endArrow=classic;html=1;rounded=0;fontSize=14;exitX=0.5;exitY=1;exitDx=0;exitDy=0;entryX=0.406;entryY=0;entryDx=0;entryDy=0;entryPerimeter=0;" parent="1" source="i_WOiG4FeXk5FNqNEXf6-33" target="i_WOiG4FeXk5FNqNEXf6-30" edge="1">
          <mxGeometry width="50" height="50" relative="1" as="geometry">
            <mxPoint x="598.98" y="250" as="sourcePoint" />
            <mxPoint x="569.9950000000001" y="355" as="targetPoint" />
            <Array as="points">
              <mxPoint x="630" y="310" />
            </Array>
          </mxGeometry>
        </mxCell>
        <mxCell id="i_WOiG4FeXk5FNqNEXf6-37" value="" style="curved=1;endArrow=classic;html=1;rounded=0;fontSize=14;entryX=0.667;entryY=0;entryDx=0;entryDy=0;entryPerimeter=0;exitX=0.411;exitY=1;exitDx=0;exitDy=0;exitPerimeter=0;" parent="1" source="i_WOiG4FeXk5FNqNEXf6-33" target="i_WOiG4FeXk5FNqNEXf6-17" edge="1">
          <mxGeometry width="50" height="50" relative="1" as="geometry">
            <mxPoint x="540" y="260" as="sourcePoint" />
            <mxPoint x="567.96" y="345" as="targetPoint" />
            <Array as="points">
              <mxPoint x="590" y="300" />
            </Array>
          </mxGeometry>
        </mxCell>
        <mxCell id="i_WOiG4FeXk5FNqNEXf6-38" value="&lt;div&gt;Appointment&lt;/div&gt;&lt;div&gt;Confirmation&lt;br&gt;&lt;/div&gt;" style="ellipse;whiteSpace=wrap;html=1;aspect=fixed;fillColor=none;fontSize=14;" parent="1" vertex="1">
          <mxGeometry x="450" y="220" width="85" height="85" as="geometry" />
        </mxCell>
        <mxCell id="i_WOiG4FeXk5FNqNEXf6-39" value="" style="curved=1;endArrow=classic;html=1;rounded=0;fontSize=14;exitX=0.494;exitY=1.06;exitDx=0;exitDy=0;exitPerimeter=0;entryX=0.97;entryY=0.69;entryDx=0;entryDy=0;entryPerimeter=0;" parent="1" source="i_WOiG4FeXk5FNqNEXf6-30" target="i_WOiG4FeXk5FNqNEXf6-38" edge="1">
          <mxGeometry width="50" height="50" relative="1" as="geometry">
            <mxPoint x="699.9957287525378" y="429.64427124746214" as="sourcePoint" />
            <mxPoint x="553" y="310" as="targetPoint" />
            <Array as="points">
              <mxPoint x="560" y="400" />
            </Array>
          </mxGeometry>
        </mxCell>
        <mxCell id="i_WOiG4FeXk5FNqNEXf6-40" value="" style="curved=1;endArrow=classic;html=1;rounded=0;fontSize=14;entryX=0.5;entryY=1;entryDx=0;entryDy=0;exitX=0.593;exitY=1.06;exitDx=0;exitDy=0;exitPerimeter=0;" parent="1" source="i_WOiG4FeXk5FNqNEXf6-17" target="i_WOiG4FeXk5FNqNEXf6-38" edge="1">
          <mxGeometry width="50" height="50" relative="1" as="geometry">
            <mxPoint x="515" y="442.55" as="sourcePoint" />
            <mxPoint x="452.5120382004284" y="489.99796179957167" as="targetPoint" />
            <Array as="points">
              <mxPoint x="570" y="440" />
            </Array>
          </mxGeometry>
        </mxCell>
        <mxCell id="i_WOiG4FeXk5FNqNEXf6-41" value="0.5" style="text;html=1;strokeColor=none;fillColor=none;align=center;verticalAlign=middle;whiteSpace=wrap;rounded=0;fontSize=14;" parent="1" vertex="1">
          <mxGeometry x="462.5" y="275" width="60" height="30" as="geometry" />
        </mxCell>
        <mxCell id="i_WOiG4FeXk5FNqNEXf6-42" value="&lt;div&gt;Cancel&lt;/div&gt;&lt;div&gt;/Reschedule&lt;br&gt;&lt;/div&gt;&lt;div&gt;Appointment&lt;/div&gt;" style="ellipse;whiteSpace=wrap;html=1;aspect=fixed;fillColor=none;fontSize=14;" parent="1" vertex="1">
          <mxGeometry x="690" y="170" width="90" height="90" as="geometry" />
        </mxCell>
        <mxCell id="i_WOiG4FeXk5FNqNEXf6-43" value="0.7" style="text;html=1;strokeColor=none;fillColor=none;align=center;verticalAlign=middle;whiteSpace=wrap;rounded=0;fontSize=14;" parent="1" vertex="1">
          <mxGeometry x="497.5" y="550" width="60" height="30" as="geometry" />
        </mxCell>
        <mxCell id="i_WOiG4FeXk5FNqNEXf6-44" value="" style="curved=1;endArrow=classic;html=1;rounded=0;fontSize=14;entryX=0.733;entryY=-0.02;entryDx=0;entryDy=0;entryPerimeter=0;exitX=0.078;exitY=0.8;exitDx=0;exitDy=0;exitPerimeter=0;" parent="1" source="i_WOiG4FeXk5FNqNEXf6-42" target="i_WOiG4FeXk5FNqNEXf6-17" edge="1">
          <mxGeometry width="50" height="50" relative="1" as="geometry">
            <mxPoint x="640" y="240" as="sourcePoint" />
            <mxPoint x="581.865" y="358.18" as="targetPoint" />
            <Array as="points">
              <mxPoint x="590" y="300" />
            </Array>
          </mxGeometry>
        </mxCell>
        <mxCell id="i_WOiG4FeXk5FNqNEXf6-45" value="" style="curved=1;endArrow=classic;html=1;rounded=0;fontSize=14;entryX=0.494;entryY=-0.04;entryDx=0;entryDy=0;entryPerimeter=0;exitX=0.356;exitY=0.989;exitDx=0;exitDy=0;exitPerimeter=0;" parent="1" source="i_WOiG4FeXk5FNqNEXf6-42" target="i_WOiG4FeXk5FNqNEXf6-30" edge="1">
          <mxGeometry width="50" height="50" relative="1" as="geometry">
            <mxPoint x="821.05" y="275.5" as="sourcePoint" />
            <mxPoint x="620.0049999999999" y="354.5" as="targetPoint" />
            <Array as="points" />
          </mxGeometry>
        </mxCell>
        <mxCell id="i_WOiG4FeXk5FNqNEXf6-48" value="&lt;div&gt;Cancellation&lt;/div&gt;&lt;div&gt;/Rescheduling Request&lt;/div&gt;" style="ellipse;whiteSpace=wrap;html=1;aspect=fixed;fillColor=none;fontSize=14;" parent="1" vertex="1">
          <mxGeometry x="477.5" y="485" width="95" height="95" as="geometry" />
        </mxCell>
        <mxCell id="i_WOiG4FeXk5FNqNEXf6-50" value="" style="curved=1;endArrow=classic;html=1;rounded=0;fontSize=14;entryX=0;entryY=0.5;entryDx=0;entryDy=0;" parent="1" target="i_WOiG4FeXk5FNqNEXf6-48" edge="1">
          <mxGeometry width="50" height="50" relative="1" as="geometry">
            <mxPoint x="170" y="530" as="sourcePoint" />
            <mxPoint x="101.98000000000002" y="437.5" as="targetPoint" />
            <Array as="points">
              <mxPoint x="310" y="640" />
            </Array>
          </mxGeometry>
        </mxCell>
        <mxCell id="i_WOiG4FeXk5FNqNEXf6-51" value="" style="curved=1;endArrow=classic;html=1;rounded=0;fontSize=14;exitX=0.995;exitY=0.405;exitDx=0;exitDy=0;entryX=0.681;entryY=1.04;entryDx=0;entryDy=0;exitPerimeter=0;entryPerimeter=0;" parent="1" source="i_WOiG4FeXk5FNqNEXf6-48" target="i_WOiG4FeXk5FNqNEXf6-30" edge="1">
          <mxGeometry width="50" height="50" relative="1" as="geometry">
            <mxPoint x="590" y="527.5" as="sourcePoint" />
            <mxPoint x="698.96" y="543.04" as="targetPoint" />
            <Array as="points">
              <mxPoint x="650" y="510" />
            </Array>
          </mxGeometry>
        </mxCell>
        <mxCell id="i_WOiG4FeXk5FNqNEXf6-52" value="0.6" style="text;html=1;strokeColor=none;fillColor=none;align=center;verticalAlign=middle;whiteSpace=wrap;rounded=0;fontSize=14;" parent="1" vertex="1">
          <mxGeometry x="705" y="230" width="60" height="30" as="geometry" />
        </mxCell>
        <mxCell id="i_WOiG4FeXk5FNqNEXf6-55" value="" style="curved=1;endArrow=classic;html=1;rounded=0;fontSize=14;entryX=0.189;entryY=0.078;entryDx=0;entryDy=0;entryPerimeter=0;" parent="1" target="i_WOiG4FeXk5FNqNEXf6-42" edge="1">
          <mxGeometry width="50" height="50" relative="1" as="geometry">
            <mxPoint x="190" y="70" as="sourcePoint" />
            <mxPoint x="620" y="160" as="targetPoint" />
            <Array as="points" />
          </mxGeometry>
        </mxCell>
        <mxCell id="i_WOiG4FeXk5FNqNEXf6-64" value="" style="curved=1;endArrow=classic;html=1;rounded=0;fontSize=14;entryX=0;entryY=1;entryDx=0;entryDy=0;exitX=0.663;exitY=-0.04;exitDx=0;exitDy=0;exitPerimeter=0;" parent="1" source="i_WOiG4FeXk5FNqNEXf6-6" target="i_WOiG4FeXk5FNqNEXf6-18" edge="1">
          <mxGeometry width="50" height="50" relative="1" as="geometry">
            <mxPoint x="373.28999999999996" y="345.72" as="sourcePoint" />
            <mxPoint x="444.99572875253784" y="265.00427124746216" as="targetPoint" />
            <Array as="points">
              <mxPoint x="393" y="330" />
            </Array>
          </mxGeometry>
        </mxCell>
        <mxCell id="i_WOiG4FeXk5FNqNEXf6-65" value="" style="curved=1;endArrow=classic;html=1;rounded=0;fontSize=14;exitX=0.507;exitY=1.02;exitDx=0;exitDy=0;exitPerimeter=0;entryX=0.5;entryY=0;entryDx=0;entryDy=0;" parent="1" source="i_WOiG4FeXk5FNqNEXf6-6" target="i_WOiG4FeXk5FNqNEXf6-24" edge="1">
          <mxGeometry width="50" height="50" relative="1" as="geometry">
            <mxPoint x="321.8401948466052" y="409.9998051533948" as="sourcePoint" />
            <mxPoint x="198.1650000000001" y="511.18" as="targetPoint" />
            <Array as="points">
              <mxPoint x="300" y="440" />
            </Array>
          </mxGeometry>
        </mxCell>
        <mxCell id="ZGvGmiSjte9xh0HO9sed-1" value="" style="curved=1;endArrow=classic;html=1;rounded=0;fontSize=14;exitX=0.083;exitY=0.222;exitDx=0;exitDy=0;exitPerimeter=0;" parent="1" source="i_WOiG4FeXk5FNqNEXf6-24" edge="1">
          <mxGeometry width="50" height="50" relative="1" as="geometry">
            <mxPoint x="190" y="400" as="sourcePoint" />
            <mxPoint x="190" y="400" as="targetPoint" />
            <Array as="points">
              <mxPoint x="250" y="440" />
            </Array>
          </mxGeometry>
        </mxCell>
        <mxCell id="ZGvGmiSjte9xh0HO9sed-3" value="" style="curved=1;endArrow=classic;html=1;rounded=0;fontSize=14;exitX=0.378;exitY=0.033;exitDx=0;exitDy=0;exitPerimeter=0;" parent="1" source="i_WOiG4FeXk5FNqNEXf6-42" edge="1">
          <mxGeometry width="50" height="50" relative="1" as="geometry">
            <mxPoint x="642.01" y="179.99999999999997" as="sourcePoint" />
            <mxPoint x="190" y="50" as="targetPoint" />
            <Array as="points">
              <mxPoint x="470" y="30" />
            </Array>
          </mxGeometry>
        </mxCell>
        <mxCell id="ZGvGmiSjte9xh0HO9sed-14" value="" style="curved=1;endArrow=classic;html=1;rounded=0;fontSize=14;exitX=0;exitY=0.5;exitDx=0;exitDy=0;" parent="1" source="i_WOiG4FeXk5FNqNEXf6-38" edge="1">
          <mxGeometry width="50" height="50" relative="1" as="geometry">
            <mxPoint x="331.08837418297776" y="217.9434709653026" as="sourcePoint" />
            <mxPoint x="230" y="190" as="targetPoint" />
            <Array as="points">
              <mxPoint x="330" y="250" />
            </Array>
          </mxGeometry>
        </mxCell>
        <mxCell id="ZGvGmiSjte9xh0HO9sed-15" value="" style="curved=1;endArrow=classic;html=1;rounded=0;fontSize=14;exitX=0;exitY=0;exitDx=0;exitDy=0;" parent="1" source="i_WOiG4FeXk5FNqNEXf6-33" edge="1">
          <mxGeometry width="50" height="50" relative="1" as="geometry">
            <mxPoint x="627.5" y="180" as="sourcePoint" />
            <mxPoint x="200" y="130" as="targetPoint" />
            <Array as="points">
              <mxPoint x="410" y="150" />
            </Array>
          </mxGeometry>
        </mxCell>
        <mxCell id="ZGvGmiSjte9xh0HO9sed-18" value="" style="curved=1;endArrow=classic;html=1;rounded=0;fontSize=14;exitX=1;exitY=1;exitDx=0;exitDy=0;" parent="1" source="i_WOiG4FeXk5FNqNEXf6-38" edge="1">
          <mxGeometry width="50" height="50" relative="1" as="geometry">
            <mxPoint x="540" y="340" as="sourcePoint" />
            <mxPoint x="190" y="480" as="targetPoint" />
            <Array as="points">
              <mxPoint x="580" y="350" />
              <mxPoint x="410" y="540" />
              <mxPoint x="300" y="560" />
            </Array>
          </mxGeometry>
        </mxCell>
        <mxCell id="ZGvGmiSjte9xh0HO9sed-20" value="" style="curved=1;endArrow=classic;html=1;rounded=0;fontSize=14;exitX=0.631;exitY=1.02;exitDx=0;exitDy=0;exitPerimeter=0;entryX=1;entryY=0;entryDx=0;entryDy=0;" parent="1" source="i_WOiG4FeXk5FNqNEXf6-30" target="i_WOiG4FeXk5FNqNEXf6-48" edge="1">
          <mxGeometry width="50" height="50" relative="1" as="geometry">
            <mxPoint x="835.0049999999999" y="445.54" as="sourcePoint" />
            <mxPoint x="824.04" y="517.5" as="targetPoint" />
            <Array as="points">
              <mxPoint x="600" y="450" />
            </Array>
          </mxGeometry>
        </mxCell>
      </root>
    </mxGraphModel>
  </diagram>
</mxfile>
